<?xml version="1.0" standalone="no"?>
<!DOCTYPE svg PUBLIC "-//W3C//DTD SVG 20010904//EN"
 "http://www.w3.org/TR/2001/REC-SVG-20010904/DTD/svg10.dtd">
<svg version="1.0" xmlns="http://www.w3.org/2000/svg"
 width="300.000000pt" height="300.000000pt" viewBox="0 0 300.000000 300.000000"
 preserveAspectRatio="xMidYMid meet">

<g transform="translate(0.000000,300.000000) scale(0.100000,-0.100000)"
fill="#000000" stroke="none">
<path d="M1455 2853 c-68 -175 -211 -516 -258 -615 l-45 -97 103 -99 c57 -55
140 -126 184 -158 77 -57 98 -84 65 -84 -25 0 -232 107 -322 167 -46 30 -84
53 -86 52 -2 -2 -77 -150 -168 -329 -182 -358 -751 -1414 -885 -1644 -3 -4 28
11 68 33 338 189 763 381 851 385 16 0 28 4 28 7 0 4 39 17 88 28 l87 22 0 45
c0 24 -3 44 -7 44 -5 0 -8 43 -8 95 0 52 4 95 9 95 4 0 6 11 4 24 -7 34 33
170 69 239 17 32 48 77 69 100 43 49 132 101 160 94 10 -3 19 -1 19 4 0 5 9 9
20 9 11 0 20 -4 20 -9 0 -5 9 -7 20 -4 55 15 184 -95 238 -203 38 -76 65 -161
58 -179 -3 -8 -1 -15 5 -15 7 0 9 -12 7 -30 -3 -17 -1 -30 4 -30 4 0 8 -50 8
-111 0 -60 -4 -108 -8 -105 -5 3 -6 -12 -3 -32 5 -28 11 -38 29 -40 12 -2 22
-7 22 -12 0 -4 9 -6 20 -3 12 3 20 0 20 -6 0 -7 4 -10 9 -7 15 10 71 -6 64
-17 -3 -6 -1 -7 6 -3 42 26 561 -206 901 -402 l44 -26 -48 89 c-27 50 -78 145
-115 213 -64 120 -69 126 -159 199 -108 87 -248 183 -344 237 -66 37 -78 49
-59 60 12 8 196 -52 285 -93 38 -17 70 -30 72 -29 1 2 -29 62 -67 133 -447
831 -704 1352 -925 1873 -54 127 -101 232 -105 232 -3 0 -23 -44 -44 -97z"/>
</g>
</svg>
